<svg xmlns="http://www.w3.org/2000/svg" viewBox="0 0 1400 700" width="1400" height="700">
  <title>HIDProxBox Enclosure — Design Options Overview</title>
  <defs>
    <pattern id="dotsOV" x="0" y="0" width="24" height="24" patternUnits="userSpaceOnUse">
      <circle cx="12" cy="12" r="0.7" fill="#1E2D45" opacity="0.7"/>
    </pattern>

    <!-- Option A gradients -->
    <linearGradient id="ov-gA-front" x1="0" y1="220" x2="0" y2="280" gradientUnits="userSpaceOnUse">
      <stop offset="0%" stop-color="#2A3F5C"/>
      <stop offset="100%" stop-color="#1A2A3E"/>
    </linearGradient>
    <linearGradient id="ov-gA-side" x1="320" y1="0" x2="375" y2="0" gradientUnits="userSpaceOnUse">
      <stop offset="0%" stop-color="#1A2A3E"/>
      <stop offset="100%" stop-color="#0C1825"/>
    </linearGradient>
    <linearGradient id="ov-gA-top" x1="0" y1="185" x2="0" y2="220" gradientUnits="userSpaceOnUse">
      <stop offset="0%" stop-color="#253A55"/>
      <stop offset="100%" stop-color="#1E2D40"/>
    </linearGradient>

    <!-- Option B gradients -->
    <linearGradient id="ov-gB-front" x1="0" y1="195" x2="0" y2="340" gradientUnits="userSpaceOnUse">
      <stop offset="0%" stop-color="#2A3F5C"/>
      <stop offset="100%" stop-color="#1A2A3E"/>
    </linearGradient>
    <linearGradient id="ov-gB-side" x1="675" y1="0" x2="720" y2="0" gradientUnits="userSpaceOnUse">
      <stop offset="0%" stop-color="#1A2A3E"/>
      <stop offset="100%" stop-color="#0C1825"/>
    </linearGradient>
    <linearGradient id="ov-gB-top" x1="0" y1="165" x2="0" y2="195" gradientUnits="userSpaceOnUse">
      <stop offset="0%" stop-color="#253A55"/>
      <stop offset="100%" stop-color="#1E2D40"/>
    </linearGradient>

    <!-- Option C gradients -->
    <linearGradient id="ov-gC-top" x1="1010" y1="310" x2="1010" y2="250" gradientUnits="userSpaceOnUse">
      <stop offset="0%" stop-color="#1E2D40"/>
      <stop offset="100%" stop-color="#253A55"/>
    </linearGradient>
    <linearGradient id="ov-gC-front" x1="0" y1="310" x2="0" y2="340" gradientUnits="userSpaceOnUse">
      <stop offset="0%" stop-color="#1A2A3E"/>
      <stop offset="100%" stop-color="#0C1825"/>
    </linearGradient>
    <linearGradient id="ov-gC-side" x1="1215" y1="0" x2="1290" y2="0" gradientUnits="userSpaceOnUse">
      <stop offset="0%" stop-color="#162030"/>
      <stop offset="100%" stop-color="#0A1620"/>
    </linearGradient>

    <filter id="ov-led" x="-150%" y="-150%" width="400%" height="400%">
      <feGaussianBlur in="SourceGraphic" stdDeviation="2" result="blur"/>
      <feMerge><feMergeNode in="blur"/><feMergeNode in="SourceGraphic"/></feMerge>
    </filter>

    <!-- Star / recommended badge -->
    <filter id="glow-rec" x="-50%" y="-50%" width="200%" height="200%">
      <feGaussianBlur in="SourceGraphic" stdDeviation="6" result="blur"/>
      <feMerge><feMergeNode in="blur"/><feMergeNode in="SourceGraphic"/></feMerge>
    </filter>
  </defs>

  <!-- Background -->
  <rect width="1400" height="700" fill="#090D1A"/>
  <rect width="1400" height="700" fill="url(#dotsOV)"/>

  <!-- Circuit trace accents -->
  <path d="M 0 660 L 50 660 L 50 620 L 90 620" stroke="#1E2D45" stroke-width="1.5" fill="none" opacity="0.5"/>
  <circle cx="90" cy="620" r="3" fill="#1E2D45" opacity="0.5"/>
  <path d="M 1400 100 L 1360 100 L 1360 140 L 1340 140" stroke="#1E2D45" stroke-width="1.5" fill="none" opacity="0.5"/>

  <!-- ─── HEADER ─────────────────────────────────────────── -->
  <text x="50" y="44" font-family="JetBrains Mono, Fira Code, monospace" font-size="22" font-weight="700" fill="#F1F5F9">HIDProxBox — Enclosure Design Concepts</text>
  <text x="50" y="66" font-family="Inter, system-ui, sans-serif" font-size="13" fill="#94A3B8">Three enclosure options for board review · DVI-33 · April 2026</text>
  <line x1="50" y1="78" x2="1350" y2="78" stroke="#334155" stroke-width="1"/>

  <!-- ═══════════════════════════════════════════════════════
       CARD BACKGROUNDS (three columns)
  ═══════════════════════════════════════════════════════ -->

  <!-- Card A -->
  <rect x="30" y="90" width="415" height="480" rx="8" fill="#0F172A" stroke="#334155" stroke-width="1.5"/>
  <!-- Card B (highlighted — recommended) -->
  <rect x="490" y="90" width="415" height="480" rx="8" fill="#0F172A" stroke="#22D3EE" stroke-width="2"/>
  <!-- Recommended glow -->
  <rect x="490" y="90" width="415" height="480" rx="8" fill="none" stroke="#22D3EE" stroke-width="6" opacity="0.08" filter="url(#glow-rec)"/>
  <!-- Card C -->
  <rect x="950" y="90" width="415" height="480" rx="8" fill="#0F172A" stroke="#334155" stroke-width="1.5"/>

  <!-- ─── RECOMMENDED BADGE (Card B) ───────────────────── -->
  <rect x="605" y="78" width="180" height="26" rx="6" fill="#22D3EE"/>
  <text x="695" y="95" font-family="Inter, sans-serif" font-size="12" font-weight="700" fill="#090D1A" text-anchor="middle">★ RECOMMENDED</text>

  <!-- ═══════════════════════════════════════════════════════
       CARD A: COMPACT SLAB
  ═══════════════════════════════════════════════════════ -->

  <!-- Card A title -->
  <text x="50" y="120" font-family="JetBrains Mono, monospace" font-size="15" font-weight="700" fill="#F1F5F9">Option A</text>
  <text x="50" y="138" font-family="Inter, sans-serif" font-size="18" font-weight="700" fill="#F1F5F9">Compact Slab</text>
  <text x="50" y="156" font-family="Inter, sans-serif" font-size="11" fill="#94A3B8">175 × 90 × 32 mm · Traditional KVM</text>

  <!-- Mini 3D box: front(60,200)→(310,200)→(310,260)→(60,260) [250×60] D_h=55 D_v=31 -->
  <!-- Top face -->
  <polygon points="60,200 310,200 365,169 115,169" fill="url(#ov-gA-top)" stroke="#334155" stroke-width="1.2"/>
  <!-- Right side -->
  <polygon points="310,200 365,169 365,231 310,260" fill="url(#ov-gA-side)" stroke="#334155" stroke-width="1.2"/>
  <!-- Front face -->
  <rect x="60" y="200" width="250" height="60" fill="url(#ov-gA-front)" stroke="#334155" stroke-width="1.2"/>
  <line x1="60" y1="201" x2="310" y2="201" stroke="#4A6080" stroke-width="1"/>

  <!-- Display on front (left 40%) -->
  <rect x="68" y="206" width="97" height="48" rx="2" fill="#0D1824" stroke="#253040" stroke-width="1"/>
  <rect x="71" y="209" width="91" height="42" rx="1" fill="#070F1C"/>
  <!-- Tally indicator bars on mini screen -->
  <rect x="74" y="213" width="19" height="15" rx="1" fill="#c0253e"/>
  <text x="83" y="224" font-family="JetBrains Mono, monospace" font-size="8" font-weight="700" fill="#fff" text-anchor="middle">1</text>
  <rect x="96" y="213" width="19" height="15" rx="1" fill="#0a1e35"/>
  <text x="105" y="224" font-family="JetBrains Mono, monospace" font-size="8" font-weight="700" fill="#475569" text-anchor="middle">2</text>
  <rect x="118" y="213" width="19" height="15" rx="1" fill="#0a1e35"/>
  <text x="127" y="224" font-family="JetBrains Mono, monospace" font-size="8" font-weight="700" fill="#475569" text-anchor="middle">3</text>
  <rect x="140" y="213" width="19" height="15" rx="1" fill="#0a1e35"/>
  <text x="149" y="224" font-family="JetBrains Mono, monospace" font-size="8" font-weight="700" fill="#475569" text-anchor="middle">4</text>

  <!-- 4 mini buttons (right side) -->
  <circle cx="184" cy="230" r="11" fill="#111E30" stroke="#253040" stroke-width="1"/>
  <circle cx="184" cy="230" r="8" fill="#0F1A28" stroke="#22D3EE" stroke-width="1.2"/>
  <text x="184" y="233.5" font-family="JetBrains Mono, monospace" font-size="7.5" font-weight="700" fill="#22D3EE" text-anchor="middle">1</text>
  <circle cx="184" cy="208" r="3.5" fill="#22D3EE" filter="url(#ov-led)"/>

  <circle cx="210" cy="230" r="11" fill="#111E30" stroke="#253040" stroke-width="1"/>
  <circle cx="210" cy="230" r="8" fill="#0F1A28" stroke="#334155" stroke-width="1"/>
  <text x="210" y="233.5" font-family="JetBrains Mono, monospace" font-size="7.5" font-weight="700" fill="#475569" text-anchor="middle">2</text>
  <circle cx="210" cy="208" r="3.5" fill="#152030" stroke="#334155"/>

  <circle cx="236" cy="230" r="11" fill="#111E30" stroke="#253040" stroke-width="1"/>
  <circle cx="236" cy="230" r="8" fill="#0F1A28" stroke="#334155" stroke-width="1"/>
  <text x="236" y="233.5" font-family="JetBrains Mono, monospace" font-size="7.5" font-weight="700" fill="#475569" text-anchor="middle">3</text>
  <circle cx="236" cy="208" r="3.5" fill="#152030" stroke="#334155"/>

  <circle cx="262" cy="230" r="11" fill="#111E30" stroke="#253040" stroke-width="1"/>
  <circle cx="262" cy="230" r="8" fill="#0F1A28" stroke="#334155" stroke-width="1"/>
  <text x="262" y="233.5" font-family="JetBrains Mono, monospace" font-size="7.5" font-weight="700" fill="#475569" text-anchor="middle">4</text>
  <circle cx="262" cy="208" r="3.5" fill="#152030" stroke="#334155"/>

  <!-- 2 mode buttons -->
  <rect x="178" y="248" width="27" height="9" rx="2" fill="#0E1B2E" stroke="#22D3EE" stroke-width="0.8"/>
  <text x="191" y="254.5" font-family="Inter, sans-serif" font-size="5" fill="#22D3EE" text-anchor="middle">INPUT</text>
  <rect x="210" y="248" width="30" height="9" rx="2" fill="#0E1B2E" stroke="#334155" stroke-width="0.8"/>
  <text x="225" y="254.5" font-family="Inter, sans-serif" font-size="5" fill="#475569" text-anchor="middle">OUTPUT</text>

  <!-- Card A stats -->
  <line x1="46" y1="276" x2="430" y2="276" stroke="#334155" stroke-width="1"/>

  <text x="50" y="296" font-family="Inter, sans-serif" font-size="12" font-weight="700" fill="#F1F5F9">Key Features</text>
  <circle cx="58" cy="313" r="4" fill="#22D3EE"/>
  <text x="68" y="317" font-family="Inter, sans-serif" font-size="12" fill="#94A3B8">Front display + button panel</text>
  <circle cx="58" cy="331" r="4" fill="#22D3EE"/>
  <text x="68" y="335" font-family="Inter, sans-serif" font-size="12" fill="#94A3B8">All ports on rear edge</text>
  <circle cx="58" cy="349" r="4" fill="#22D3EE"/>
  <text x="68" y="353" font-family="Inter, sans-serif" font-size="12" fill="#94A3B8">Widest form — monitor-width</text>
  <circle cx="58" cy="367" r="4" fill="#22D3EE"/>
  <text x="68" y="371" font-family="Inter, sans-serif" font-size="12" fill="#94A3B8">Easiest FDM print (no supports)</text>

  <line x1="46" y1="382" x2="430" y2="382" stroke="#334155" stroke-width="1"/>

  <text x="50" y="400" font-family="Inter, sans-serif" font-size="11" font-weight="600" fill="#22D3EE">Pro</text>
  <text x="50" y="415" font-family="Inter, sans-serif" font-size="11" fill="#94A3B8">Classic look, zero assembly complexity</text>
  <text x="50" y="430" font-family="Inter, sans-serif" font-size="11" fill="#94A3B8">Flat print → stable on most printers</text>

  <text x="50" y="450" font-family="Inter, sans-serif" font-size="11" font-weight="600" fill="#3B82F6">Con</text>
  <text x="50" y="465" font-family="Inter, sans-serif" font-size="11" fill="#94A3B8">Wide footprint = bulky on desk</text>
  <text x="50" y="480" font-family="Inter, sans-serif" font-size="11" fill="#94A3B8">Tight internal airflow for Pi</text>

  <!-- Print difficulty badge -->
  <rect x="50" y="494" width="130" height="22" rx="4" fill="#1E293B" stroke="#334155" stroke-width="1"/>
  <text x="65" y="508" font-family="Inter, sans-serif" font-size="10" font-weight="600" fill="#22D3EE">Print: ★★★★★ Easy</text>

  <!-- ═══════════════════════════════════════════════════════
       CARD B: DESKTOP PUCK (RECOMMENDED)
  ═══════════════════════════════════════════════════════ -->

  <!-- Card B title -->
  <text x="510" y="120" font-family="JetBrains Mono, monospace" font-size="15" font-weight="700" fill="#22D3EE">Option B</text>
  <text x="510" y="138" font-family="Inter, sans-serif" font-size="18" font-weight="700" fill="#F1F5F9">Desktop Puck</text>
  <text x="510" y="156" font-family="Inter, sans-serif" font-size="11" fill="#94A3B8">100 × 100 × 95 mm · Upright tower</text>

  <!-- Mini 3D box (upright): front(545,190)→(675,190)→(675,340)→(545,340) [130×150] D_h=45 D_v=25 -->
  <!-- Top face -->
  <polygon points="545,190 675,190 720,165 590,165" fill="url(#ov-gB-top)" stroke="#22D3EE" stroke-width="1.2"/>
  <!-- Right side -->
  <polygon points="675,190 720,165 720,315 675,340" fill="url(#ov-gB-side)" stroke="#22D3EE" stroke-width="1.2"/>
  <!-- Front face -->
  <rect x="545" y="190" width="130" height="150" fill="url(#ov-gB-front)" stroke="#22D3EE" stroke-width="1.5"/>
  <line x1="545" y1="191" x2="675" y2="191" stroke="#4AABB0" stroke-width="1.5"/>

  <!-- Display (upper 55%) -->
  <rect x="554" y="198" width="112" height="82" rx="2" fill="#0D1824" stroke="#253040" stroke-width="1"/>
  <rect x="557" y="201" width="106" height="76" rx="1" fill="#070F1C"/>
  <!-- Screen content -->
  <rect x="557" y="201" width="106" height="11" rx="1" fill="#0D1E35"/>
  <text x="610" y="209.5" font-family="Inter, sans-serif" font-size="6" fill="#94A3B8" text-anchor="middle">HIDProxBox</text>
  <circle cx="656" cy="206" r="3" fill="#22D3EE"/>
  <!-- Tallies -->
  <rect x="560" y="215" width="23" height="20" rx="2" fill="#c0253e"/>
  <text x="571" y="229" font-family="JetBrains Mono, monospace" font-size="9" font-weight="700" fill="#fff" text-anchor="middle">1</text>
  <rect x="586" y="215" width="23" height="20" rx="2" fill="#0a1e35"/>
  <text x="597" y="229" font-family="JetBrains Mono, monospace" font-size="9" font-weight="700" fill="#475569" text-anchor="middle">2</text>
  <rect x="612" y="215" width="23" height="20" rx="2" fill="#0a1e35"/>
  <text x="623" y="229" font-family="JetBrains Mono, monospace" font-size="9" font-weight="700" fill="#475569" text-anchor="middle">3</text>
  <rect x="638" y="215" width="23" height="20" rx="2" fill="#0a1e35"/>
  <text x="649" y="229" font-family="JetBrains Mono, monospace" font-size="9" font-weight="700" fill="#475569" text-anchor="middle">4</text>
  <!-- Status -->
  <rect x="560" y="239" width="44" height="10" rx="1" fill="#0D2018"/>
  <text x="582" y="247" font-family="Inter, sans-serif" font-size="5.5" fill="#22D3EE" text-anchor="middle">IN: USB</text>
  <rect x="608" y="239" width="52" height="10" rx="1" fill="#0D1832"/>
  <text x="634" y="247" font-family="Inter, sans-serif" font-size="5.5" fill="#3B82F6" text-anchor="middle">OUT: USB</text>
  <!-- Keymapp -->
  <rect x="560" y="254" width="100" height="9" rx="1" fill="#3B1060" opacity="0.8"/>
  <text x="610" y="261" font-family="Inter, sans-serif" font-size="5" fill="#C084FC" text-anchor="middle">ZSA Keymapp ▶</text>

  <!-- 4 buttons below display (y: 290) -->
  <line x1="554" y1="285" x2="662" y2="285" stroke="#253040" stroke-width="1"/>

  <circle cx="572" cy="310" r="13" fill="#0F1B2A" stroke="#22D3EE" stroke-width="1.5"/>
  <circle cx="572" cy="310" r="9" fill="#0C1620" stroke="#22D3EE" stroke-width="1.5"/>
  <text x="572" y="314" font-family="JetBrains Mono, monospace" font-size="9" font-weight="700" fill="#22D3EE" text-anchor="middle">1</text>
  <circle cx="572" cy="291" r="4" fill="#22D3EE" filter="url(#ov-led)"/>
  <circle cx="572" cy="291" r="2.5" fill="#CCFFFF"/>

  <circle cx="597" cy="310" r="13" fill="#0F1B2A" stroke="#334155" stroke-width="1"/>
  <circle cx="597" cy="310" r="9" fill="#0C1620" stroke="#334155" stroke-width="1"/>
  <text x="597" y="314" font-family="JetBrains Mono, monospace" font-size="9" font-weight="700" fill="#475569" text-anchor="middle">2</text>
  <circle cx="597" cy="291" r="4" fill="#152030" stroke="#334155"/>

  <circle cx="622" cy="310" r="13" fill="#0F1B2A" stroke="#334155" stroke-width="1"/>
  <circle cx="622" cy="310" r="9" fill="#0C1620" stroke="#334155" stroke-width="1"/>
  <text x="622" y="314" font-family="JetBrains Mono, monospace" font-size="9" font-weight="700" fill="#475569" text-anchor="middle">3</text>
  <circle cx="622" cy="291" r="4" fill="#152030" stroke="#334155"/>

  <circle cx="648" cy="310" r="13" fill="#0F1B2A" stroke="#334155" stroke-width="1"/>
  <circle cx="648" cy="310" r="9" fill="#0C1620" stroke="#334155" stroke-width="1"/>
  <text x="648" y="314" font-family="JetBrains Mono, monospace" font-size="9" font-weight="700" fill="#475569" text-anchor="middle">4</text>
  <circle cx="648" cy="291" r="4" fill="#152030" stroke="#334155"/>

  <!-- Side mode buttons -->
  <circle cx="697" cy="222" r="10" fill="#0E1B2E" stroke="#22D3EE" stroke-width="1.2"/>
  <text x="697" y="218" font-family="Inter, sans-serif" font-size="4.5" fill="#22D3EE" text-anchor="middle">IN</text>
  <text x="697" y="225" font-family="Inter, sans-serif" font-size="4.5" fill="#22D3EE" text-anchor="middle">PUT</text>
  <circle cx="697" cy="262" r="10" fill="#0E1B2E" stroke="#334155" stroke-width="1"/>
  <text x="697" y="258" font-family="Inter, sans-serif" font-size="4.5" fill="#475569" text-anchor="middle">OUT</text>
  <text x="697" y="265" font-family="Inter, sans-serif" font-size="4.5" fill="#475569" text-anchor="middle">PUT</text>

  <!-- Card B stats -->
  <line x1="506" y1="355" x2="890" y2="355" stroke="#22D3EE" stroke-width="1" opacity="0.4"/>

  <text x="510" y="375" font-family="Inter, sans-serif" font-size="12" font-weight="700" fill="#F1F5F9">Key Features</text>
  <circle cx="518" cy="392" r="4" fill="#22D3EE"/>
  <text x="528" y="396" font-family="Inter, sans-serif" font-size="12" fill="#94A3B8">Display-forward — screen faces user</text>
  <circle cx="518" cy="410" r="4" fill="#22D3EE"/>
  <text x="528" y="414" font-family="Inter, sans-serif" font-size="12" fill="#94A3B8">Compact 10×10 cm desk footprint</text>
  <circle cx="518" cy="428" r="4" fill="#22D3EE"/>
  <text x="528" y="432" font-family="Inter, sans-serif" font-size="12" fill="#94A3B8">Side mode buttons within reach</text>
  <circle cx="518" cy="446" r="4" fill="#22D3EE"/>
  <text x="528" y="450" font-family="Inter, sans-serif" font-size="12" fill="#94A3B8">Clean cable management on rear</text>

  <line x1="506" y1="461" x2="890" y2="461" stroke="#22D3EE" stroke-width="1" opacity="0.4"/>

  <text x="510" y="479" font-family="Inter, sans-serif" font-size="11" font-weight="600" fill="#22D3EE">Pro</text>
  <text x="510" y="494" font-family="Inter, sans-serif" font-size="11" fill="#94A3B8">Best balance of visibility + desk space</text>
  <text x="510" y="509" font-family="Inter, sans-serif" font-size="11" fill="#94A3B8">Standard Pi mounting, easy assembly</text>

  <text x="510" y="528" font-family="Inter, sans-serif" font-size="11" font-weight="600" fill="#3B82F6">Con</text>
  <text x="510" y="543" font-family="Inter, sans-serif" font-size="11" fill="#94A3B8">Taller profile → more visible cables</text>
  <text x="510" y="558" font-family="Inter, sans-serif" font-size="11" fill="#94A3B8">Display mount requires minor support</text>

  <!-- Print difficulty badge -->
  <rect x="510" y="562" width="140" height="22" rx="4" fill="#1E293B" stroke="#22D3EE" stroke-width="1"/>
  <text x="525" y="576" font-family="Inter, sans-serif" font-size="10" font-weight="600" fill="#22D3EE">Print: ★★★★☆ Good</text>

  <!-- ═══════════════════════════════════════════════════════
       CARD C: CONTROL DECK
  ═══════════════════════════════════════════════════════ -->

  <!-- Card C title -->
  <text x="970" y="120" font-family="JetBrains Mono, monospace" font-size="15" font-weight="700" fill="#F1F5F9">Option C</text>
  <text x="970" y="138" font-family="Inter, sans-serif" font-size="18" font-weight="700" fill="#F1F5F9">Control Deck</text>
  <text x="970" y="156" font-family="Inter, sans-serif" font-size="11" fill="#94A3B8">220 × 120 × 22 mm · Ultra-thin panel</text>

  <!-- Mini 3D box (ultra-thin, wide)
       Front edge: (980,300)→(1210,300)→(1210,325)→(980,325) [230×25]
       Right side: (1210,300)→(1282,255)→(1282,280)→(1210,325)
       Top face:   (980,300)→(1210,300)→(1282,255)→(1050,255)
       D_h=72, D_v=45
  -->
  <!-- Top face (main control surface) -->
  <polygon points="980,300 1210,300 1282,255 1052,255" fill="url(#ov-gC-top)" stroke="#334155" stroke-width="1.2"/>
  <line x1="1052" y1="255" x2="1282" y2="255" stroke="#3D5270" stroke-width="1.2"/>
  <!-- Right side -->
  <polygon points="1210,300 1282,255 1282,280 1210,325" fill="url(#ov-gC-side)" stroke="#334155" stroke-width="1.2"/>
  <!-- Front edge -->
  <rect x="980" y="300" width="230" height="25" fill="url(#ov-gC-front)" stroke="#334155" stroke-width="1.2"/>
  <line x1="980" y1="301" x2="1210" y2="301" stroke="#4A6080" stroke-width="1"/>

  <!-- Controls on top surface (perspective-approx) -->
  <!-- Top-face parameterization:
       P.x = 980 + 230*s + 72*t
       P.y = 300 - 45*t  -->

  <!-- Display (left 40%, approx parallelogram) -->
  <!-- TL(s=0.04,t=0.10): x=980+9.2+7.2=996.4 y=300-4.5=295.5 -->
  <!-- TR(s=0.40,t=0.10): x=980+92+7.2=1079.2 y=295.5 -->
  <!-- BR(s=0.40,t=0.90): x=980+92+64.8=1136.8 y=300-40.5=259.5 -->
  <!-- BL(s=0.04,t=0.90): x=980+9.2+64.8=1054 y=259.5 -->
  <polygon points="995,295.5 1079,295.5 1136,260 1054,260"
           fill="#0D1824" stroke="#253040" stroke-width="1"/>
  <polygon points="998,294 1076,294 1133,261 1057,261"
           fill="#070F1C"/>
  <!-- Tally blocks on display -->
  <polygon points="1001,294 1020,294 1022,280 1003,280" fill="#c0253e"/>
  <text x="1011" y="290" font-family="JetBrains Mono, monospace" font-size="7" font-weight="700" fill="#fff" text-anchor="middle">1</text>
  <polygon points="1023,294 1042,294 1044,280 1025,280" fill="#0a1e35"/>
  <text x="1033" y="290" font-family="JetBrains Mono, monospace" font-size="7" font-weight="700" fill="#475569" text-anchor="middle">2</text>
  <polygon points="1045,294 1064,294 1066,280 1047,280" fill="#0a1e35"/>
  <text x="1055" y="290" font-family="JetBrains Mono, monospace" font-size="7" font-weight="700" fill="#475569" text-anchor="middle">3</text>
  <polygon points="1067,294 1076,294 1078,280 1069,280" fill="#0a1e35"/>
  <text x="1073" y="290" font-family="JetBrains Mono, monospace" font-size="7" font-weight="700" fill="#475569" text-anchor="middle">4</text>

  <!-- Separator -->
  <!-- s=0.44: x = 980+101.2+72*t = 1081.2+72t, y=300-45t -->
  <line x1="1087" y1="299" x2="1151" y2="261" stroke="#253040" stroke-width="1.5"/>

  <!-- 4 buttons on top surface (right of display) -->
  <!-- t=0.5: y=300-22.5=277.5, s=0.53,0.63,0.73,0.83:
       s=0.53: x=980+121.9+36=1137.9  s=0.63: x=980+144.9+36=1160.9
       s=0.73: x=980+167.9+36=1183.9  s=0.83: x=980+190.9+36=1206.9 -->
  <circle cx="1139" cy="277" r="12" fill="#0F1B2A" stroke="#22D3EE" stroke-width="1.5"/>
  <circle cx="1139" cy="277" r="8.5" fill="#0C1620" stroke="#22D3EE" stroke-width="1.5"/>
  <text x="1139" y="280.5" font-family="JetBrains Mono, monospace" font-size="8" font-weight="700" fill="#22D3EE" text-anchor="middle">1</text>
  <!-- LED above button 1 (at t=0.2, same s) -->
  <!-- s=0.53, t=0.2: x=1117.9+14.4=1132.3, y=300-9=291 -->
  <circle cx="1124" cy="291" r="4" fill="#22D3EE" filter="url(#ov-led)"/>

  <circle cx="1162" cy="277" r="12" fill="#0F1B2A" stroke="#334155" stroke-width="1"/>
  <circle cx="1162" cy="277" r="8.5" fill="#0C1620" stroke="#334155" stroke-width="1"/>
  <text x="1162" y="280.5" font-family="JetBrains Mono, monospace" font-size="8" font-weight="700" fill="#475569" text-anchor="middle">2</text>
  <circle cx="1147" cy="291" r="4" fill="#152030" stroke="#334155"/>

  <circle cx="1186" cy="277" r="12" fill="#0F1B2A" stroke="#334155" stroke-width="1"/>
  <circle cx="1186" cy="277" r="8.5" fill="#0C1620" stroke="#334155" stroke-width="1"/>
  <text x="1186" y="280.5" font-family="JetBrains Mono, monospace" font-size="8" font-weight="700" fill="#475569" text-anchor="middle">3</text>

  <circle cx="1210" cy="277" r="12" fill="#0F1B2A" stroke="#334155" stroke-width="1"/>
  <circle cx="1210" cy="277" r="8.5" fill="#0C1620" stroke="#334155" stroke-width="1"/>
  <text x="1210" y="280.5" font-family="JetBrains Mono, monospace" font-size="8" font-weight="700" fill="#475569" text-anchor="middle">4</text>

  <!-- Mode buttons (far right) -->
  <circle cx="1240" cy="277" r="9" fill="#0E1B2E" stroke="#22D3EE" stroke-width="1"/>
  <text x="1240" y="280" font-family="Inter, sans-serif" font-size="5" fill="#22D3EE" text-anchor="middle">IN</text>
  <circle cx="1258" cy="277" r="9" fill="#0E1B2E" stroke="#334155" stroke-width="0.8"/>
  <text x="1258" y="280" font-family="Inter, sans-serif" font-size="5" fill="#475569" text-anchor="middle">OUT</text>

  <!-- Front edge ports -->
  <rect x="994" y="306" width="11" height="7" rx="1" fill="#0A1628" stroke="#3B82F6" stroke-width="0.8"/>
  <rect x="1008" y="306" width="11" height="7" rx="1" fill="#0A1628" stroke="#475569" stroke-width="0.8"/>
  <rect x="1022" y="306" width="11" height="7" rx="1" fill="#0A1628" stroke="#475569" stroke-width="0.8"/>
  <rect x="1036" y="306" width="11" height="7" rx="1" fill="#0A1628" stroke="#475569" stroke-width="0.8"/>
  <rect x="1050" y="306" width="11" height="7" rx="1" fill="#0A1628" stroke="#22D3EE" stroke-width="0.8"/>

  <!-- Card C stats -->
  <line x1="966" y1="346" x2="1350" y2="346" stroke="#334155" stroke-width="1"/>

  <text x="970" y="366" font-family="Inter, sans-serif" font-size="12" font-weight="700" fill="#F1F5F9">Key Features</text>
  <circle cx="978" cy="383" r="4" fill="#22D3EE"/>
  <text x="988" y="387" font-family="Inter, sans-serif" font-size="12" fill="#94A3B8">All controls on angled top surface</text>
  <circle cx="978" cy="401" r="4" fill="#22D3EE"/>
  <text x="988" y="405" font-family="Inter, sans-serif" font-size="12" fill="#94A3B8">Ultra-low profile, minimal desk height</text>
  <circle cx="978" cy="419" r="4" fill="#22D3EE"/>
  <text x="988" y="423" font-family="Inter, sans-serif" font-size="12" fill="#94A3B8">Front-edge port access (no reaching)</text>
  <circle cx="978" cy="437" r="4" fill="#22D3EE"/>
  <text x="988" y="441" font-family="Inter, sans-serif" font-size="12" fill="#94A3B8">Stream-deck aesthetic / control feel</text>

  <line x1="966" y1="452" x2="1350" y2="452" stroke="#334155" stroke-width="1"/>

  <text x="970" y="470" font-family="Inter, sans-serif" font-size="11" font-weight="600" fill="#22D3EE">Pro</text>
  <text x="970" y="485" font-family="Inter, sans-serif" font-size="11" fill="#94A3B8">Most ergonomic — controls face user</text>
  <text x="970" y="500" font-family="Inter, sans-serif" font-size="11" fill="#94A3B8">Smallest height profile on desk</text>

  <text x="970" y="519" font-family="Inter, sans-serif" font-size="11" font-weight="600" fill="#3B82F6">Con</text>
  <text x="970" y="534" font-family="Inter, sans-serif" font-size="11" fill="#94A3B8">22 mm height very tight — may require</text>
  <text x="970" y="549" font-family="Inter, sans-serif" font-size="11" fill="#94A3B8">Pi Zero 2 W or CM4 board</text>

  <!-- Print difficulty badge -->
  <rect x="970" y="558" width="160" height="22" rx="4" fill="#1E293B" stroke="#334155" stroke-width="1"/>
  <text x="985" y="572" font-family="Inter, sans-serif" font-size="10" font-weight="600" fill="#94A3B8">Print: ★★★☆☆ Moderate</text>

  <!-- ═══════════════════════════════════════════════════════
       RECOMMENDATION BAR
  ═══════════════════════════════════════════════════════ -->
  <line x1="50" y1="590" x2="1350" y2="590" stroke="#334155" stroke-width="1"/>

  <text x="50" y="614" font-family="Inter, sans-serif" font-size="13" font-weight="700" fill="#22D3EE">Design Recommendation:</text>
  <text x="262" y="614" font-family="Inter, sans-serif" font-size="13" fill="#F1F5F9">Option B (Desktop Puck) offers the best balance of display visibility, internal volume for</text>
  <text x="50" y="632" font-family="Inter, sans-serif" font-size="13" fill="#F1F5F9">Pi + CH552T boards, compact desk footprint, and straightforward FDM printing. Options A and C remain valid</text>
  <text x="50" y="650" font-family="Inter, sans-serif" font-size="13" fill="#F1F5F9">for workflows where desk width (A) or ultra-low profile (C) are the priority constraint.</text>

  <!-- Footer -->
  <line x1="50" y1="668" x2="1350" y2="668" stroke="#334155" stroke-width="1"/>
  <text x="50" y="686" font-family="JetBrains Mono, monospace" font-size="10" fill="#475569">HIDProxBox · Enclosure Design Concepts · DVI-33 · April 2026</text>
  <text x="1350" y="686" font-family="JetBrains Mono, monospace" font-size="10" fill="#475569" text-anchor="end">© 2026 HIDProxBox Project</text>
</svg>
