<svg xmlns="http://www.w3.org/2000/svg" viewBox="0 0 252 64" width="252" height="64">
  <title>HIDProxBox — Light Variant</title>

  <!-- === ICON (64×64, light-bg optimized) === -->
  <rect x="15" y="7" width="34" height="50" rx="5"
        fill="#0F172A" stroke="#2563EB" stroke-width="2"/>
  <rect x="15" y="7"  width="5" height="5" fill="#0891B2" opacity="0.6" rx="1"/>
  <rect x="44" y="7"  width="5" height="5" fill="#0891B2" opacity="0.6" rx="1"/>
  <rect x="15" y="52" width="5" height="5" fill="#0891B2" opacity="0.6" rx="1"/>
  <rect x="44" y="52" width="5" height="5" fill="#0891B2" opacity="0.6" rx="1"/>

  <line x1="3" y1="32" x2="15" y2="32" stroke="#0891B2" stroke-width="2.5" stroke-linecap="round"/>
  <circle cx="3" cy="32" r="3" fill="#0891B2"/>

  <line x1="17" y1="32" x2="24.5" y2="32" stroke="#0891B2" stroke-width="1.5" stroke-linecap="round"/>
  <circle cx="29" cy="32" r="4.5" fill="#2563EB"/>
  <circle cx="29" cy="32" r="1.8" fill="#0F172A"/>
  <line x1="33.5" y1="32" x2="40" y2="32" stroke="#2563EB" stroke-width="1.5" stroke-linecap="round"/>
  <line x1="40" y1="17" x2="40" y2="47" stroke="#2563EB" stroke-width="1.5" stroke-linecap="round"/>

  <line x1="40" y1="17" x2="49" y2="17" stroke="#2563EB" stroke-width="1" stroke-linecap="round"/>
  <line x1="40" y1="27" x2="49" y2="27" stroke="#2563EB" stroke-width="1" stroke-linecap="round"/>
  <line x1="40" y1="37" x2="49" y2="37" stroke="#2563EB" stroke-width="1" stroke-linecap="round"/>
  <line x1="40" y1="47" x2="49" y2="47" stroke="#2563EB" stroke-width="1" stroke-linecap="round"/>

  <line x1="49" y1="17" x2="59" y2="17" stroke="#2563EB" stroke-width="2" stroke-linecap="round"/>
  <line x1="49" y1="27" x2="59" y2="27" stroke="#2563EB" stroke-width="2" stroke-linecap="round"/>
  <line x1="49" y1="37" x2="59" y2="37" stroke="#2563EB" stroke-width="2" stroke-linecap="round"/>
  <line x1="49" y1="47" x2="59" y2="47" stroke="#2563EB" stroke-width="2" stroke-linecap="round"/>
  <circle cx="60" cy="17" r="2.5" fill="#2563EB"/>
  <circle cx="60" cy="27" r="2.5" fill="#2563EB"/>
  <circle cx="60" cy="37" r="2.5" fill="#2563EB"/>
  <circle cx="60" cy="47" r="2.5" fill="#2563EB"/>

  <!-- === WORDMARK (dark text for light backgrounds) === -->
  <text
    x="76" y="42"
    font-family="'JetBrains Mono','Fira Code','Courier New',monospace"
    font-size="30"
    font-weight="700"
    letter-spacing="-0.5">
    <tspan fill="#0891B2">HID</tspan><tspan fill="#0F172A">Prox</tspan><tspan fill="#2563EB">Box</tspan>
  </text>
</svg>
